<svg width="70" height="42" viewBox="0 0 70 42" fill="none" xmlns="http://www.w3.org/2000/svg">
<path d="M43.4711 26.824C43.2457 26.8696 43.0067 26.931 42.7769 26.9902C42.415 27.0835 42.0405 27.1791 41.6411 27.2417C41.5705 27.2531 41.5 27.2633 41.4306 27.2736C41.1267 34.5627 38.7243 40.2381 34.2484 40.2381C29.7725 40.2381 27.2665 34.1485 27.1106 26.4838C27.0765 26.4735 27.0423 26.4633 27.0093 26.453L26.9832 26.4451L26.9752 26.4428C26.4949 26.2983 25.9988 26.1481 25.5196 26.0331C24.9028 25.8852 24.3247 25.6837 23.7637 25.4869C23.5087 25.3969 23.2447 25.3048 22.9852 25.2217C22.967 25.2183 22.95 25.2149 22.9317 25.2114C22.7258 25.1682 22.5186 25.1261 22.3115 25.084C22.307 25.2786 22.3047 25.4732 22.3047 25.6701C22.3047 33.8514 26.1717 40.5488 34.2495 40.5488C42.3273 40.5488 46.1193 34.0381 46.2263 26.0126L46.1796 26.0286C45.3158 26.3244 44.4213 26.6306 43.4722 26.824H43.4711Z" fill="#132463"/>
<path d="M48.8913 23.7645C48.9971 23.7133 49.1041 23.6598 49.2111 23.6075C49.1746 23.5494 49.1382 23.4925 49.0973 23.4379C49.0745 23.4072 49.0517 23.3764 49.0278 23.3469C49.0278 23.3469 49.0278 23.3457 49.0256 23.3446C49.0244 23.3434 49.0221 23.34 49.0187 23.3355C49.0085 23.3218 48.9971 23.3082 48.9869 23.2945C48.9152 23.2023 48.8446 23.1101 48.7775 23.0157C48.0059 23.3423 47.2013 23.6575 46.3261 23.9762C46.2761 23.9944 46.226 24.0103 46.1759 24.0274C46.1531 23.6894 46.1247 23.3548 46.0883 23.0237C46.0621 22.7915 46.0337 22.5605 46.0007 22.3317C45.954 22.0062 45.9005 21.6853 45.8402 21.3689C46.5685 21.2176 47.1671 20.9968 47.6838 20.6895L47.735 20.6588C47.8261 20.6042 47.9114 20.5518 47.9843 20.5336H47.9888C47.9945 20.5313 48.0002 20.5302 48.0059 20.5279L48.1026 20.5029L48.0992 20.4904C48.213 20.4289 48.2881 20.3208 48.304 20.1911V20.1888C48.3439 19.8463 47.908 19.6095 47.908 19.6095C47.875 19.5925 47.8397 19.5765 47.8067 19.5606C47.9888 19.531 48.1698 19.4923 48.3496 19.4434C48.5123 19.4001 48.6728 19.3489 48.8321 19.2897C48.9482 19.2465 49.0654 19.2021 49.1815 19.1566C49.3601 19.0883 49.5456 19.0166 49.7277 18.9518C50.167 18.7958 50.5494 18.6206 50.8999 18.4146L50.9682 18.3748C51.2959 18.1836 51.7455 17.9207 51.9537 17.5611C52.022 17.4439 52.0482 17.3278 52.0709 17.2253C52.0766 17.198 52.0835 17.1707 52.0914 17.1446L52.1984 16.8043L51.8593 16.6916C51.6908 16.6358 51.5144 16.5892 51.3483 16.5573L51.2607 16.5403C51.1844 16.5255 51.1059 16.5118 51.0285 16.497C51.5896 16.2501 52.1916 15.9735 52.7105 15.582C52.9017 15.4375 53.0827 15.2782 53.2443 15.0984C53.2727 15.0665 53.3012 15.0335 53.3342 14.9948C53.4229 14.8912 53.506 14.7934 53.5925 14.7456C53.6517 14.7126 53.8326 14.6124 53.8816 14.4121C53.8873 14.3894 53.8907 14.3643 53.8918 14.3393C53.902 14.1652 53.803 13.9615 53.4855 13.8738C53.4503 13.8647 53.4161 13.8579 53.3808 13.8522C53.5618 13.7782 53.7405 13.6917 53.9112 13.5882C54.3823 13.3025 54.8341 12.9839 55.2768 12.6721C55.4475 12.5514 55.6182 12.4319 55.7901 12.3136C56.1565 12.0621 56.4137 11.814 56.5981 11.5352L56.6163 11.5078C56.6914 11.3952 56.8052 11.2268 56.8177 11.0276C56.8223 10.9616 56.8154 10.8922 56.7915 10.8193C56.7517 10.6953 56.6686 10.5872 56.5514 10.495C56.5355 10.4825 56.5207 10.4688 56.5025 10.4563C56.3966 10.3835 56.2623 10.3243 56.1337 10.2913C56.0188 10.2628 55.9061 10.2515 55.798 10.2503C55.8481 10.2093 55.8993 10.1684 55.9471 10.124C55.9721 10.1012 56.0006 10.0796 56.0302 10.058C56.07 10.0284 56.1121 9.99881 56.1576 9.96808C56.268 9.89411 56.3818 9.81672 56.4877 9.71088C56.5764 9.62325 56.6686 9.5379 56.7608 9.45141C56.9235 9.30005 57.0931 9.143 57.2502 8.96888C57.4152 8.78566 57.5256 8.59447 57.6325 8.40897C57.7042 8.28492 57.7714 8.16884 57.851 8.063L57.9353 7.95147L57.9227 7.81264C57.9114 7.68176 57.8579 7.5543 57.7737 7.45415C57.7247 7.39611 57.6701 7.35286 57.6075 7.32441C57.5722 7.30734 57.5369 7.29596 57.496 7.28913C57.4778 7.28572 57.4607 7.28344 57.4448 7.28231C57.4402 7.28231 57.4368 7.28231 57.4323 7.28231C57.4186 7.28231 57.4061 7.28117 57.3947 7.28117C57.3856 7.28117 57.3776 7.28117 57.3708 7.28117C56.8291 7.29255 56.2817 7.3927 55.7434 7.57364C55.7764 7.52129 55.8094 7.46894 55.8401 7.41545L55.9357 7.24589C56.185 6.80661 56.4422 6.35253 56.5821 5.8131C56.7289 5.25319 56.8792 4.6762 56.8598 4.05028C56.8564 3.96151 56.8507 3.87047 56.8405 3.77943C56.8405 3.76236 56.8507 3.70887 56.8564 3.68042C56.8621 3.65083 56.8678 3.62238 56.8723 3.59279C56.894 3.46078 56.9179 3.32762 56.9452 3.18651C57.0032 2.88038 57.0624 2.56286 57.0795 2.23738C57.084 2.16113 57.0851 2.08489 57.084 2.00864C57.0795 1.47604 56.9577 0.945707 56.721 0.431314C56.7028 0.392621 56.6834 0.356209 56.6629 0.323206C56.6561 0.312964 56.6493 0.302719 56.6425 0.292477C56.6277 0.270854 56.614 0.249233 56.5981 0.229886C56.589 0.218506 56.5799 0.209399 56.5708 0.199157C56.556 0.183224 56.5412 0.167295 56.5252 0.1525C56.515 0.143396 56.5047 0.134287 56.4945 0.126321C56.4786 0.113802 56.4615 0.101284 56.4444 0.0910417C56.4331 0.0842134 56.4228 0.0773861 56.4114 0.0705578C56.3932 0.0603155 56.3739 0.0523514 56.3557 0.0443852C56.3443 0.039833 56.3329 0.0341434 56.3215 0.0307293C56.2988 0.022763 56.276 0.0182081 56.2521 0.0136559C56.243 0.0113798 56.2339 0.00910514 56.2248 0.0079671C56.1918 0.00227691 56.1565 0 56.1212 0C56.0837 0 56.0438 0.00341606 56.0029 0.00910625H56.0006L55.526 0.0819354L55.7252 0.517806C55.9687 1.04927 56.0928 1.60805 56.0996 2.18958C56.103 2.53782 56.0643 2.89517 55.9813 3.2582C55.9175 3.31055 55.8561 3.35949 55.7958 3.40729C55.6125 3.55296 55.4384 3.6918 55.2848 3.85681C54.7112 4.47363 54.2822 5.1758 53.8201 5.96218C53.4673 6.56307 53.3945 7.19696 53.3239 7.81036C53.3069 7.96285 53.2886 8.11535 53.267 8.26671C53.2602 8.30996 53.2579 8.3532 53.2591 8.39417C53.2602 8.51936 53.2886 8.6343 53.316 8.74355C53.3273 8.78907 53.3387 8.83459 53.3467 8.88239L53.3638 8.98481C53.2955 9.04513 53.2272 9.10772 53.16 9.17373C53.2101 8.80842 53.2317 8.42831 53.2226 8.03C53.2192 7.89685 53.2135 7.76256 53.2033 7.62486C53.1589 7.01032 53.0337 6.48568 52.8209 6.02364C52.8107 6.00088 52.7595 5.85065 52.739 5.79489C52.574 5.32147 52.5307 5.19401 52.2758 5.18035C52.261 5.18035 52.2473 5.18035 52.2337 5.18035C52.2246 5.18035 52.2166 5.18035 52.2075 5.18149C52.1973 5.18149 52.1882 5.18377 52.1791 5.18604C52.1711 5.18718 52.162 5.18945 52.154 5.19059C52.1449 5.19287 52.1358 5.19514 52.1267 5.19856C52.1187 5.20083 52.1108 5.20311 52.104 5.20653C52.0948 5.20994 52.0869 5.21449 52.0778 5.2179C52.0709 5.22132 52.063 5.22474 52.0562 5.22929C52.0482 5.23384 52.0391 5.23953 52.0311 5.24522C52.0243 5.24977 52.0175 5.25433 52.0106 5.25888C52.0027 5.26457 51.9947 5.27139 51.9867 5.27822C51.9799 5.28391 51.9731 5.28961 51.9662 5.2953C51.9583 5.30212 51.9503 5.31008 51.9423 5.31805C51.9355 5.32488 51.9298 5.33057 51.923 5.3374C51.915 5.34651 51.9071 5.35561 51.9002 5.36471C51.8946 5.37154 51.8877 5.37951 51.882 5.38634C51.8741 5.39658 51.8661 5.40682 51.8593 5.41706C51.8536 5.42503 51.8479 5.43299 51.8422 5.44096C51.8342 5.45234 51.8263 5.46372 51.8194 5.47624C51.8138 5.48534 51.8081 5.49331 51.8024 5.50241C51.7944 5.51493 51.7864 5.52859 51.7785 5.54225C51.7728 5.55135 51.7682 5.56046 51.7625 5.56956C51.7546 5.58435 51.7466 5.59915 51.7386 5.61395C51.733 5.62305 51.7284 5.63215 51.7227 5.6424C51.7147 5.65833 51.7056 5.67426 51.6977 5.69133C51.6931 5.70157 51.6874 5.71068 51.6829 5.72092C51.6738 5.73913 51.6647 5.75734 51.6556 5.77668C51.651 5.78579 51.6465 5.79489 51.6419 5.804C51.6294 5.82903 51.6169 5.85635 51.6044 5.88252C51.6032 5.88593 51.6021 5.88821 51.5998 5.89049C51.585 5.92121 51.5702 5.95194 51.5554 5.98381C51.5395 6.01795 51.527 6.04412 51.5201 6.05778C51.3722 6.33204 51.206 6.65525 51.0991 7.00462C51.0422 7.19126 51.0046 7.37563 50.9682 7.55316L50.9648 7.57137C50.9477 7.65217 50.9318 7.73183 50.9136 7.8115C50.8851 7.9344 50.8532 8.05503 50.8202 8.17794C50.8168 8.19046 50.8134 8.20298 50.8111 8.21436L50.7872 8.01179L50.4253 8.05617C50.414 8.05731 50.4026 8.05959 50.3889 8.06187C50.1977 8.0869 50.0612 8.24168 49.9166 8.4249L49.895 8.45221C49.7824 8.58764 49.6777 8.73217 49.5843 8.88239C49.2691 9.38654 49.1007 9.94873 48.9425 10.528C48.9163 10.6213 48.8935 10.7124 48.8719 10.8034L48.823 10.5678L48.4144 10.7442C47.9592 10.9411 47.6121 11.4862 47.3822 11.847L47.3731 11.8618C47.1455 12.2191 46.9441 12.6174 46.7404 13.1159L46.6573 13.3162C46.63 13.3811 46.6027 13.4471 46.5765 13.5119C46.531 13.3412 46.4365 13.1944 46.2305 13.1557C46.2021 13.15 46.1736 13.1489 46.1475 13.1478C46.1418 13.1478 46.1361 13.1478 46.1315 13.1478C46.1031 13.1478 46.0746 13.1512 46.0484 13.1557C46.0439 13.1557 46.0393 13.158 46.0348 13.1591C46.0086 13.1648 45.9824 13.1728 45.9585 13.1819C45.9551 13.183 45.9517 13.1842 45.9494 13.1864C45.9244 13.1967 45.9005 13.2092 45.8777 13.2229C45.855 13.2365 45.8334 13.2513 45.814 13.2673C45.8117 13.2695 45.8083 13.2707 45.806 13.2729C45.7878 13.2877 45.7696 13.3037 45.7537 13.3185C45.7503 13.3207 45.748 13.3242 45.7446 13.3264C45.7287 13.3412 45.715 13.356 45.7013 13.3708C45.6991 13.3742 45.6957 13.3765 45.6934 13.3799C45.6809 13.3936 45.6683 13.4084 45.6581 13.4209C45.6558 13.4232 45.6547 13.4254 45.6524 13.4277C45.6422 13.4402 45.6331 13.4516 45.6262 13.4607C45.5966 13.4994 45.5682 13.5381 45.5409 13.5779C45.5033 13.6314 45.4646 13.6861 45.4271 13.7225C45.3827 13.7669 45.3258 13.8112 45.2655 13.859C45.212 13.9011 45.1574 13.9444 45.1073 13.9899C44.9753 14.1071 44.8558 14.2528 44.7545 14.4224C44.6441 14.6056 44.5565 14.7934 44.4723 14.9743C44.4529 15.0153 44.4336 15.0574 44.4142 15.0984L44.0114 15.1462C43.8088 15.1701 43.6096 15.2656 43.4344 15.3715C43.2443 15.1029 43.0452 14.8434 42.8346 14.5942C42.5945 14.3086 42.3419 14.0366 42.0756 13.7794C42.0061 13.7122 41.9356 13.6462 41.8639 13.5814C41.8161 13.6439 41.7694 13.7077 41.7216 13.7703C41.4792 14.0821 41.2448 14.3723 41.0798 14.7353C40.9967 14.9185 40.9284 15.1075 40.8476 15.2918C40.7634 15.4841 40.6496 15.6617 40.5506 15.8472C40.4664 16.0054 40.3822 16.151 40.274 16.2944C40.224 16.3604 40.1716 16.4276 40.125 16.4981C40.1796 16.6495 40.2331 16.8009 40.2843 16.9579C40.2843 16.9579 40.282 16.9591 40.2809 16.9602C40.2115 17.0205 40.1591 17.0854 40.1181 17.1389C40.0897 17.1741 40.0635 17.2083 40.043 17.2253C39.9804 17.2754 39.9087 17.3232 39.8291 17.3756C39.779 17.4086 39.7289 17.4404 39.6811 17.4746C39.4273 17.6521 39.1815 17.8308 38.9562 18.0573C38.6102 18.4055 38.3064 18.7856 38.0116 19.1532L37.9661 19.2112C37.2605 20.0921 36.902 21.0913 36.869 22.2612C36.803 22.2782 36.7359 22.2942 36.6699 22.3112C36.2943 22.4057 35.9404 22.4945 35.5785 22.573C35.4146 22.6083 35.2507 22.6458 35.0857 22.6822C34.2106 22.8768 33.307 23.0794 32.3943 23.1386C31.7536 23.1807 31.1049 23.2513 30.4767 23.3184C30.1717 23.3514 29.8678 23.3844 29.5628 23.414C29.4411 23.4254 29.3193 23.4413 29.1987 23.4561C29.1952 23.4561 29.1918 23.4561 29.1873 23.4572C29.1224 23.4652 29.0587 23.4732 28.9927 23.48C28.9722 23.4823 28.9506 23.4846 28.9301 23.4868C28.8811 23.4925 28.8311 23.4971 28.7821 23.5016C28.756 23.5039 28.7286 23.505 28.7025 23.5073C28.6581 23.5107 28.6148 23.513 28.5705 23.5153C28.542 23.5164 28.5136 23.5176 28.4851 23.5176C28.4589 23.5176 28.4339 23.5198 28.4077 23.5198C28.377 23.5198 28.3463 23.5198 28.3167 23.5187C28.1926 23.5141 28.0697 23.5096 27.9457 23.505C27.9445 23.505 27.9434 23.505 27.9411 23.505C27.8034 23.4994 27.6646 23.4948 27.5257 23.4902C27.4859 23.4891 27.4449 23.488 27.4051 23.4868C27.3289 23.4846 27.2526 23.4846 27.1764 23.4834C27.1012 23.4823 27.0261 23.48 26.951 23.48C26.8463 23.48 26.7428 23.48 26.6381 23.4834C26.8224 23.4493 27.0034 23.4095 27.1832 23.3685C27.2116 23.3628 27.2401 23.356 27.2674 23.3503C27.5075 23.2968 27.7545 23.241 27.9992 23.1989C28.1869 23.167 28.3656 23.101 28.5386 23.0373C28.7036 22.977 28.8584 22.9201 29.0188 22.8905C29.6254 22.7767 30.1887 22.5366 30.7339 22.3044C30.9205 22.2247 31.1071 22.1451 31.2949 22.0711C31.9903 21.7957 32.6549 21.419 33.2967 21.056L33.3092 21.0492C33.9135 20.7066 34.5531 20.3299 35.1358 19.8963C35.6593 19.506 36.1703 19.0838 36.6653 18.6752C36.9339 18.4522 37.2127 18.2223 37.4893 18.0004C38.0628 17.5406 38.5977 17.0251 39.0791 16.4686C39.2885 16.2262 39.5104 15.9872 39.7255 15.755C40.0464 15.227 40.3651 14.6955 40.645 14.147C40.8112 13.8226 40.9796 13.4994 41.1856 13.1978C41.2129 13.1591 41.2402 13.1182 41.2687 13.0783C41.5794 12.6425 41.7899 12.136 41.8923 11.5693C41.9196 11.4145 41.9253 11.2666 41.9299 11.1243C41.9333 11.0082 41.9367 10.899 41.9538 10.8C41.9834 10.619 41.9948 10.4415 41.9936 10.2606C41.9902 9.96011 41.9492 9.65398 41.8889 9.31712C41.8821 9.27843 41.8753 9.24201 41.8684 9.20673L41.8514 9.12934C41.799 8.89832 41.7296 8.73103 41.5999 8.62519C41.5373 8.57398 41.4747 8.55236 41.4462 8.54212L41.3723 8.51594C41.3392 8.50342 41.3062 8.49659 41.2721 8.49318C41.2721 8.48635 41.2732 8.47839 41.2744 8.47156C41.3074 8.16201 41.321 7.8775 41.3165 7.61234C41.3085 7.16964 41.2493 6.78157 41.1344 6.42309L41.1207 6.38212C41.1003 6.32067 41.0798 6.25694 41.0786 6.21824V6.21483C41.0786 6.20914 41.0786 6.20231 41.0786 6.19662L41.0764 6.09419H41.0616C41.0263 5.97925 40.9421 5.88593 40.826 5.84382C40.826 5.84382 40.8249 5.84382 40.8237 5.84382C40.8021 5.83586 40.7805 5.83017 40.7588 5.82676C40.7509 5.82562 40.7429 5.82562 40.7361 5.82448C40.7224 5.82334 40.7076 5.82107 40.694 5.82107C40.6906 5.82107 40.6872 5.82107 40.6826 5.82107C40.6587 5.82107 40.6348 5.82448 40.612 5.82903C40.6052 5.83017 40.5984 5.83131 40.5927 5.83359C40.5677 5.83928 40.5426 5.84724 40.5199 5.85635C40.5176 5.85635 40.5153 5.85862 40.5142 5.85862C40.4925 5.86772 40.4709 5.87797 40.4516 5.88935C40.4459 5.89276 40.4402 5.89504 40.4345 5.89845C40.414 5.91097 40.3947 5.92235 40.3765 5.936C40.3765 5.76075 40.3674 5.58549 40.3446 5.41023C40.3332 5.3226 40.3207 5.23384 40.3082 5.1428L40.3059 5.12914C40.2877 4.99599 40.2684 4.86284 40.2536 4.72969C40.216 4.39055 40.1534 4.08784 40.0646 3.80105L40.0476 3.74642C39.9634 3.47443 39.8484 3.10229 39.6106 2.87924C39.5275 2.80185 39.4399 2.75861 39.367 2.72446C39.3522 2.7165 39.3363 2.70967 39.3226 2.7017L39.0154 2.51962L38.8287 2.82347C38.7593 2.93614 38.6956 3.05677 38.6455 3.17171L38.6205 3.22861C38.5533 3.37884 38.4782 3.54954 38.4122 3.72366C38.394 3.77259 38.3792 3.82153 38.3667 3.86819C38.2449 3.54613 38.0947 3.20585 37.9069 2.8303C37.7578 2.53213 37.6042 2.26697 37.4346 2.01888C37.3436 1.88573 37.2469 1.75486 37.1467 1.62967C37.141 1.62284 37.1342 1.61374 37.1228 1.59667C37.0534 1.49994 36.9487 1.35313 36.7666 1.31329C36.7416 1.3076 36.7143 1.30533 36.6881 1.30533C36.6722 1.30533 36.6574 1.30533 36.6414 1.3076C36.6357 1.3076 36.63 1.30761 36.6244 1.30874C36.6027 1.31216 36.58 1.31671 36.5583 1.32354C36.5538 1.32468 36.5504 1.32695 36.5458 1.32809C36.5288 1.33378 36.5117 1.34061 36.4946 1.34971C36.4878 1.35313 36.481 1.35768 36.473 1.36223C36.4593 1.37019 36.4457 1.3793 36.4332 1.38841C36.4263 1.3941 36.4184 1.39979 36.4115 1.40661C36.399 1.41686 36.3876 1.42937 36.3763 1.44075C36.3694 1.44758 36.3626 1.45555 36.3569 1.46352C36.3455 1.47831 36.3353 1.49425 36.325 1.51018C36.3205 1.51815 36.3148 1.52497 36.3103 1.53407C36.2966 1.56025 36.2829 1.58756 36.2727 1.61829C36.2249 1.75827 36.2135 1.90053 36.2056 2.01547L36.2021 2.05871C36.1987 2.09399 36.1976 2.13041 36.1964 2.16569C36.1919 2.41378 36.2397 2.65277 36.2864 2.88834C36.3046 2.9828 36.3239 3.07612 36.3364 3.16602C36.3626 3.33901 36.3808 3.52223 36.4002 3.70317C36.4388 4.07076 36.4775 4.44973 36.58 4.82415C36.7154 5.31805 36.9373 5.79148 37.24 6.2319C37.2127 6.22279 37.1865 6.21141 37.1592 6.20345C36.8781 6.11468 36.5447 6.0225 36.2158 6.01681C36.2021 6.01567 36.1839 6.01112 36.1634 6.00657L36.1418 6.00201C36.1418 6.00201 36.1407 6.00201 36.1395 6.00201C36.1236 5.9986 36.1065 5.99519 36.0883 5.99177C36.0826 5.99177 36.077 5.9895 36.0713 5.98836C36.0508 5.98494 36.0303 5.98039 36.0075 5.97698C36.003 5.97698 35.9996 5.97584 35.995 5.9747C35.9745 5.97129 35.954 5.96901 35.9336 5.96673C35.929 5.96673 35.9256 5.96673 35.921 5.9656C35.8983 5.96332 35.8744 5.96218 35.8505 5.96218C35.8437 5.96218 35.8368 5.96218 35.8311 5.96218C35.8186 5.96218 35.8072 5.96219 35.7947 5.96332C35.7879 5.96332 35.7799 5.96332 35.7731 5.9656C35.7606 5.96673 35.7481 5.96901 35.7355 5.97128C35.7287 5.97128 35.723 5.97356 35.7162 5.9747C35.698 5.97812 35.6798 5.98267 35.6616 5.98836C35.6604 5.98836 35.6582 5.9895 35.657 5.9895C35.6411 5.99519 35.624 6.00201 35.6092 6.00884C35.6035 6.01112 35.5978 6.01453 35.5922 6.01795C35.5808 6.02364 35.5705 6.03046 35.5592 6.03843C35.5535 6.04298 35.5478 6.04753 35.5421 6.05209C35.5318 6.06005 35.5227 6.06802 35.5136 6.07713C35.5079 6.08282 35.5022 6.08736 35.4977 6.09305C35.4886 6.1033 35.4795 6.11468 35.4704 6.1272C35.4658 6.13289 35.4613 6.13858 35.4579 6.14427C35.4465 6.16248 35.4351 6.18297 35.4249 6.20573C35.3953 6.27401 35.3839 6.33887 35.385 6.40033C35.3896 6.58355 35.5068 6.72808 35.5523 6.78498C35.5751 6.81343 35.599 6.84075 35.6229 6.86806C35.6513 6.89992 35.6809 6.93293 35.6957 6.95683C35.7162 6.99097 35.7367 7.03421 35.7594 7.08201C35.7811 7.12867 35.8038 7.17533 35.8277 7.22085C35.8937 7.34149 35.9825 7.45757 36.0918 7.56341C36.2056 7.6738 36.3251 7.76711 36.4411 7.85929C36.4514 7.86726 36.4627 7.87637 36.473 7.88433L36.4468 8.11877C36.4434 8.15063 36.4423 8.18136 36.4423 8.21322C36.4434 8.434 36.5299 8.65478 36.5948 8.82094L36.6096 8.85849C36.6858 9.05651 36.7848 9.25567 36.9111 9.46734C37.1217 9.81672 37.3698 10.1342 37.611 10.4415C37.5814 10.4381 37.553 10.4358 37.5257 10.4358C37.5257 10.4358 37.5257 10.4358 37.5245 10.4358C37.4995 10.4358 37.4767 10.4381 37.454 10.4404C37.4472 10.4404 37.4403 10.4426 37.4324 10.4438C37.4176 10.4461 37.4028 10.4495 37.3903 10.4529C37.3823 10.4552 37.3755 10.4574 37.3686 10.4597C37.3572 10.4631 37.3459 10.4677 37.3345 10.4711C37.3277 10.4734 37.3208 10.4768 37.3151 10.4802C37.3049 10.4848 37.2958 10.4893 37.2867 10.495C37.281 10.4984 37.2753 10.5018 37.2696 10.5041C37.2605 10.5098 37.2526 10.5143 37.2446 10.52C37.24 10.5234 37.2355 10.5269 37.2309 10.5291C37.223 10.5348 37.2161 10.5416 37.2093 10.5473C37.2059 10.5496 37.2036 10.5519 37.2002 10.5553C37.1911 10.5633 37.1831 10.5724 37.1763 10.5803C37.1001 10.6657 37.0625 10.7772 37.0659 10.8899C37.0682 10.9582 37.0853 11.0253 37.1183 11.089C37.1274 11.1061 37.1376 11.1209 37.1478 11.1357C36.8064 11.0572 36.4559 10.9934 36.0952 10.9434C35.5091 10.8637 34.8968 10.8216 34.2595 10.8216C27.3949 10.8216 23.5722 15.6321 22.5787 22.0984C22.5297 22.4182 22.4865 22.7403 22.4512 23.068C22.499 23.0783 22.548 23.0885 22.5958 23.0976C22.548 23.0897 22.499 23.0794 22.4512 23.0692C22.4125 23.0612 22.3738 23.0532 22.3351 23.0441C21.7343 22.9019 21.1914 22.7926 20.677 22.7084C20.3265 22.6515 19.9771 22.5912 19.6277 22.5309C18.4283 22.3238 17.1889 22.1087 15.9428 22.0495C15.4341 22.0256 14.8833 22.0097 14.2118 22.0006C14.2039 22.0006 14.1959 22.0006 14.1868 22.0006C14.1231 22.0006 14.0593 22.0006 13.9956 22.0006C14.0149 22.0006 14.0354 22.0006 14.0548 22.0006C14.0992 22.0006 14.1424 22.0006 14.1868 22.0006C14.7786 21.7308 15.343 21.4224 15.8608 21.0696C17.5554 19.9157 18.7458 18.2894 18.7458 16.0008C18.7458 13.1705 16.5368 10.891 11.8413 10.891H0V11.1676C0.72493 11.1676 1.31216 11.9619 1.31216 14.1709V37.3003C1.31216 39.5093 0.72493 40.2695 0 40.2695V40.546H12.152C17.676 40.546 21.4042 36.7484 21.4042 32.054C21.4042 28.3326 19.1464 25.1768 14.6693 24.0274C14.6534 24.0274 14.6374 24.0274 14.6215 24.0274C13.8408 24.0274 13.0408 24.082 12.1759 24.1936C11.8356 24.2379 11.4919 24.2937 11.1437 24.3608C14.4667 25.4625 16.571 28.2142 16.571 31.675C16.571 37.1296 13.1193 40.2706 8.1825 40.2706H7.11274C6.38781 40.2706 5.80058 39.5116 5.80058 37.3015V25.1051C5.43072 25.2872 5.08931 25.475 4.76952 25.6741C5.08931 25.475 5.43072 25.2861 5.80058 25.1051C6.27856 24.8707 6.80547 24.6465 7.39725 24.4257C7.93213 24.2266 8.45221 24.0536 8.96092 23.8999C9.38882 23.7713 9.80761 23.6587 10.2219 23.5608C10.8432 23.4151 11.4521 23.3025 12.0507 23.2251C12.0518 23.2251 12.0541 23.2251 12.0552 23.2251C12.2681 23.1978 12.4775 23.1739 12.6846 23.1534C12.754 23.1466 12.8211 23.142 12.8906 23.1352C13.0294 23.1227 13.1682 23.1101 13.3048 23.101C13.3856 23.0953 13.4641 23.0919 13.5438 23.0862C13.6667 23.0794 13.7896 23.0726 13.9114 23.0669C13.9945 23.0635 14.0775 23.0612 14.1606 23.0601C14.2767 23.0567 14.3928 23.0544 14.5066 23.0544C14.5441 23.0544 14.5828 23.0521 14.6204 23.0521C14.6796 23.0521 14.7365 23.0544 14.7956 23.0544C14.8662 23.0544 14.9368 23.0555 15.0062 23.0578C15.1132 23.0601 15.219 23.0646 15.3248 23.0692C15.3908 23.0715 15.4557 23.0737 15.5217 23.0771C15.6378 23.0828 15.7527 23.0919 15.8677 23.0999C15.9212 23.1045 15.9758 23.1067 16.0293 23.1113C16.1966 23.1261 16.3639 23.142 16.53 23.1625C18.4795 23.3947 20.438 23.7076 22.3659 24.0945C22.6276 24.1469 22.8882 24.2004 23.1477 24.2562C23.1625 24.2596 23.1773 24.2618 23.1921 24.2641C23.2069 24.2664 23.2228 24.2687 23.2376 24.2732C23.5255 24.3654 23.8169 24.4667 24.098 24.5657C24.6351 24.7535 25.1893 24.9481 25.7584 25.0835C26.2136 25.1928 26.6699 25.327 27.116 25.4613C27.1695 25.4773 27.2242 25.4932 27.2776 25.5103C27.5007 25.5774 27.7249 25.6457 27.9491 25.7106C28.0253 25.7322 28.1004 25.7584 28.1767 25.7834C28.3451 25.8403 28.5181 25.8983 28.7002 25.9211C29.2134 25.9882 29.7347 26.0736 30.2377 26.1555C31.1618 26.3069 32.1177 26.4628 33.0782 26.5152C33.3912 26.5322 33.7098 26.555 34.0194 26.5777C34.511 26.613 35.0186 26.6506 35.5216 26.6642C35.69 26.6688 35.8641 26.6813 36.0314 26.6927C36.1282 26.6995 36.2272 26.7063 36.3262 26.712C36.3433 26.712 36.3603 26.7143 36.3774 26.7154C36.4753 26.72 36.5743 26.7234 36.6733 26.7234C36.7154 26.7234 36.7575 26.7234 36.7985 26.7234C37.4733 26.7075 38.1232 26.6688 38.7309 26.6096C39.5594 26.5277 40.521 26.4287 41.4735 26.2819C41.4849 26.2807 41.4952 26.2784 41.5065 26.2773C41.8593 26.2227 42.211 26.1316 42.5501 26.0451C42.7937 25.9826 43.0452 25.9177 43.2944 25.8676C44.1821 25.6878 45.0458 25.3908 45.8812 25.1051L46.094 25.0323C46.1406 25.0164 46.1873 25.0004 46.2339 24.9845C46.8052 24.7887 47.3891 24.5794 47.9308 24.2675C48.246 24.0854 48.5806 23.9227 48.9049 23.7657L48.8913 23.7645ZM40.5904 11.6615C40.6063 11.2461 40.6211 10.8535 40.7247 10.4847C40.7953 10.2344 40.9011 9.97946 41.032 9.7473C41.0764 9.6665 41.123 9.58456 41.1731 9.50262C41.2209 9.77803 41.2528 10.0273 41.2562 10.2651C41.2584 10.4074 41.2493 10.5462 41.2266 10.6839C41.2027 10.8296 41.1981 10.9684 41.1936 11.1027C41.1902 11.2245 41.1856 11.3406 41.1674 11.443C41.09 11.8697 40.9409 12.2521 40.7213 12.5833C40.62 12.2942 40.5768 12.0052 40.5881 11.7059V11.6615H40.5904ZM12.3716 21.1334C11.8185 21.6717 11.1573 22.1155 10.4574 22.4387C9.32964 22.9599 8.10283 23.2137 6.95797 23.6928C5.84269 24.1594 4.78318 24.8047 3.81243 25.5216C4.30179 25.1518 4.82187 24.8206 5.36357 24.5338C5.48534 24.4701 5.60598 25.6013 5.67767 25.4841C5.89504 25.129 5.78806 23.4743 5.78806 23.1693C5.78693 22.6822 5.78692 22.1963 5.78692 21.7092C5.78692 20.7533 5.79034 19.7985 5.79034 18.8425V14.1743C5.79034 11.9653 6.17044 11.171 7.65445 11.171H8.34524C11.7628 11.171 14.2482 12.828 14.2482 16.2114C14.2482 17.3209 14.0946 19.4536 12.3705 21.1334H12.3716ZM38.8902 12.6504L38.856 12.6072C38.6569 12.3534 38.4509 12.0917 38.2825 11.8231C38.2017 11.6933 38.1368 11.5477 38.0742 11.3952C38.0708 11.3872 38.0674 11.3792 38.0628 11.3701C38.1129 11.3929 38.1618 11.4168 38.2108 11.4418C38.2267 11.4498 38.2426 11.4566 38.2574 11.4646C38.5306 11.6069 38.8083 11.7969 39.0609 12.0154C39.4854 12.383 39.812 12.7984 40.0328 13.2502C40.0806 13.3469 40.1136 13.4596 40.142 13.5825C39.6379 13.3867 39.2259 13.0806 38.8891 12.6527L38.8902 12.6504ZM39.9315 8.88922L39.9338 8.84028C39.9554 8.43514 39.9941 8.08007 40.1102 7.73411C40.2092 7.43822 40.3412 7.16054 40.5017 6.90675C40.5574 7.16623 40.5836 7.45187 40.5802 7.77394C40.5779 7.96741 40.5642 8.17453 40.5415 8.39645L40.5267 8.54667C40.5028 8.78793 40.4789 9.03716 40.4083 9.23632C40.3241 9.47075 40.2183 9.73819 40.0544 9.99084C39.9531 9.70177 39.9099 9.41386 39.9213 9.11455C39.9247 9.03717 39.9281 8.96205 39.9315 8.88922ZM38.8583 4.97437C38.8845 4.80366 38.9243 4.63409 38.9664 4.45428C38.9824 4.386 38.9983 4.31772 39.0142 4.24944L39.0279 4.18684C39.0438 4.11059 39.0598 4.0389 39.0814 3.98086C39.1269 3.8625 39.1781 3.74187 39.2305 3.62352C39.2783 3.7396 39.3192 3.87274 39.3465 3.96037L39.3636 4.01727C39.4387 4.25854 39.4911 4.51801 39.5241 4.81049C39.54 4.95502 39.5605 5.09955 39.581 5.24294C39.5935 5.32943 39.6049 5.41592 39.6163 5.50241C39.6333 5.63101 39.6413 5.76075 39.6424 5.88935C39.6458 6.27514 39.581 6.65639 39.4467 7.02739C39.4012 7.15371 39.3488 7.29482 39.2885 7.43708C39.0848 7.09339 38.9687 6.77475 38.9289 6.44699L38.905 6.26149C38.8697 5.98039 38.8344 5.70954 38.8299 5.44438C38.8265 5.28505 38.8344 5.128 38.8583 4.97209V4.97437ZM37.1114 3.62921V3.61555C37.0909 3.4346 37.0716 3.24683 37.0443 3.06133C37.0295 2.9589 37.0079 2.85306 36.9874 2.74495C36.9806 2.71308 36.9749 2.68008 36.968 2.64822C37.0648 2.8064 37.1581 2.97369 37.248 3.15578C37.5962 3.85226 37.8056 4.40762 37.9297 4.95843C38.0014 5.27481 38.0355 5.53997 38.0367 5.79375C38.0367 5.8461 38.0446 5.88593 38.1038 6.17955C38.0025 6.05664 37.9183 5.95194 37.8773 5.8939C37.5962 5.50127 37.3914 5.07679 37.2708 4.63409C37.1843 4.31771 37.149 3.98314 37.1126 3.62921H37.1114ZM36.8804 7.29141C36.7746 7.20834 36.6756 7.12981 36.5879 7.04446C36.531 6.98983 36.4878 6.93407 36.4559 6.87603C36.44 6.84644 36.4263 6.81685 36.4081 6.77702C36.4058 6.77133 36.4036 6.76677 36.4013 6.76108C36.5834 6.78953 36.7677 6.84189 36.9328 6.89424C37.5849 7.10022 38.155 7.47919 38.6785 8.05276C38.7536 8.1347 38.8208 8.22802 38.8902 8.34524C38.7514 8.3293 38.6307 8.30426 38.5181 8.27012C37.9194 8.08462 37.4153 7.71818 37.001 7.38359C36.9624 7.35173 36.9225 7.321 36.8827 7.29027L36.8804 7.29141ZM37.5234 9.09748C37.4483 8.97229 37.3857 8.85394 37.3345 8.74013C37.677 8.88011 38.023 9.10317 38.3929 9.4241C38.8174 9.79168 39.144 10.2071 39.3648 10.6589C39.4125 10.7567 39.4455 10.8694 39.474 10.9912C38.9698 10.7954 38.5579 10.4893 38.221 10.0603L38.1869 10.017C37.9547 9.72226 37.7146 9.41613 37.5234 9.09862V9.09748ZM25.36 22.9645C25.9939 22.8484 26.6221 22.6925 27.2355 22.5036C27.2663 22.1462 27.3015 21.7934 27.3436 21.4463C28.0549 15.4603 30.3572 11.1004 34.2515 11.1004C34.9662 11.1004 35.6274 11.2461 36.2363 11.5192C37.5132 12.0917 38.5567 13.2263 39.3659 14.7729C39.2475 14.8901 39.1292 15.0062 39.0074 15.12C38.3929 15.6924 37.8876 16.1681 37.4187 16.6199C36.9157 17.1036 36.366 17.544 35.8334 17.9708L35.7253 18.0573C34.9002 18.7185 34.0171 19.3045 33.2626 19.7894C32.5684 20.2355 31.8116 20.6372 31.1447 20.9911C30.0465 21.5738 28.8447 21.9744 27.6828 22.3613L27.6134 22.3841C27.4882 22.4262 27.3619 22.4637 27.2367 22.5024C26.6233 22.6902 25.9951 22.8461 25.3612 22.9622L25.36 22.9645ZM54.0398 7.89457C54.1046 7.33124 54.1661 6.79978 54.4415 6.33091C54.8967 5.55477 55.287 4.91632 55.8117 4.35186C55.9016 4.25512 56.0074 4.16522 56.1303 4.06621C56.1474 4.5954 56.0097 5.12117 55.8765 5.63215C55.7605 6.07826 55.5363 6.47202 55.3007 6.88968L55.204 7.06153C54.9456 7.52243 54.5564 7.92644 53.9874 8.32134C54.0068 8.18022 54.0238 8.03797 54.0398 7.89571V7.89457ZM53.2454 10.2332C53.4207 9.89752 53.712 9.63464 53.9977 9.39223C54.9058 8.62178 55.9676 8.1438 57.01 8.03114C57.0066 8.03683 57.0032 8.04365 56.9987 8.04934C56.9076 8.20867 56.8211 8.35775 56.7073 8.48407C56.5708 8.63543 56.4205 8.77427 56.2612 8.92336C56.1645 9.01326 56.0677 9.10317 55.9733 9.19649C55.9141 9.25567 55.8322 9.31029 55.7457 9.36833C55.6546 9.42979 55.5499 9.50035 55.4532 9.58911C54.9764 10.025 54.3789 10.314 53.5185 10.5269C53.3615 10.5655 53.1999 10.5929 53.0428 10.6133C53.1134 10.4825 53.1794 10.3573 53.2454 10.2321V10.2332ZM51.3802 8.92108C51.4143 8.73786 51.4621 8.55805 51.5133 8.368C51.5475 8.23826 51.5827 8.10852 51.6123 7.97879C51.6339 7.8866 51.6522 7.79442 51.6715 7.69996C51.7056 7.53153 51.7386 7.37221 51.7853 7.21972C51.8729 6.93407 52.014 6.6598 52.1517 6.40374C52.1574 6.39464 52.1643 6.37984 52.1722 6.36277C52.3384 6.73718 52.4374 7.1685 52.4738 7.67834C52.4841 7.81718 52.4897 7.95261 52.4932 8.0869C52.5114 9.02237 52.3475 9.84062 51.9947 10.5781C51.915 10.7454 51.8058 10.9058 51.6874 11.0697C51.5338 10.7055 51.4336 10.281 51.3824 9.77916C51.3665 9.61984 51.3528 9.47417 51.3494 9.33419C51.346 9.19421 51.354 9.05879 51.379 8.92108H51.3802ZM51.1992 11.715C51.2186 11.7491 51.2356 11.7844 51.2561 11.8174L51.313 11.9118C51.2561 11.9551 51.2003 12.0006 51.148 12.0473C51.1673 11.9392 51.1844 11.8288 51.1992 11.715ZM50.9636 13.364C51.2254 13.0135 51.4712 12.6834 51.8046 12.4479C52.7777 11.7605 53.8554 11.295 54.9525 11.0822C55.1448 11.0447 55.3371 11.0139 55.5306 10.9934C55.5317 10.9934 55.5329 10.9934 55.534 10.9934C55.5693 10.99 55.6046 10.9855 55.641 10.9832C55.6535 10.9832 55.6649 10.9821 55.6774 10.9809C55.7036 10.9798 55.7297 10.9775 55.7559 10.9775C55.7605 10.9775 55.765 10.9775 55.7696 10.9775C55.7878 10.9775 55.8049 10.9787 55.8231 10.9798C55.8344 10.9798 55.8458 10.9798 55.8572 10.9809C55.8902 10.9843 55.9221 10.9889 55.9528 10.9957C55.9813 11.0026 56.0199 11.0173 56.0552 11.0356C56.0438 11.0538 56.029 11.0765 56.0097 11.105L55.9904 11.1346C55.8583 11.3337 55.6626 11.5192 55.3758 11.7172C55.2017 11.8367 55.0287 11.9585 54.8478 12.086C54.4199 12.3864 53.9783 12.6982 53.5311 12.9702C53.3968 13.051 53.2579 13.1193 53.1123 13.1796C52.7037 13.3469 52.2485 13.4436 51.7227 13.5438C51.6567 13.5563 51.5907 13.5643 51.5235 13.5711C51.511 13.5722 51.4974 13.5745 51.4837 13.5757C51.42 13.5813 51.3551 13.5848 51.2891 13.587C51.2766 13.587 51.2629 13.587 51.2493 13.587C51.2254 13.587 51.2015 13.5882 51.1764 13.5882C51.1457 13.5882 51.1139 13.5882 51.0831 13.587C51.0615 13.587 51.0388 13.587 51.0171 13.587C50.9477 13.5848 50.8783 13.5825 50.8054 13.5791C50.8054 13.5791 50.8032 13.5791 50.802 13.5791C50.8567 13.5085 50.909 13.4368 50.9625 13.3663L50.9636 13.364ZM49.6321 10.7237C49.7812 10.1786 49.9269 9.69154 50.1898 9.27046C50.2239 9.21697 50.2592 9.16348 50.2956 9.11113V9.11568C50.3423 9.25339 50.381 9.39906 50.414 9.54701C50.5005 9.93849 50.5414 10.3573 50.5369 10.7977C50.5346 11.0617 50.5164 11.3337 50.4811 11.6125C50.4458 11.8925 50.3935 12.1497 50.3263 12.3898C50.1738 12.9361 49.9417 13.3799 49.6276 13.7122C49.6139 13.727 49.5991 13.743 49.5855 13.7589C49.5673 13.7111 49.5525 13.6644 49.5388 13.6178C49.5115 13.5256 49.4887 13.4334 49.4683 13.3401C49.4045 13.0522 49.3704 12.7608 49.3692 12.4547C49.3658 11.9357 49.4535 11.3758 49.6321 10.7226V10.7237ZM48.9254 14.2175C48.9334 14.1868 48.9436 14.1561 48.9504 14.1253C48.9539 14.1333 48.9573 14.1413 48.9607 14.1492C48.9823 14.2039 49.0051 14.2585 49.0278 14.3108L49.0324 14.3222C49.0586 14.3837 49.0847 14.4463 49.1098 14.5077L49.1542 14.6192C49.0039 14.7069 48.8571 14.8013 48.7126 14.9026C48.7968 14.675 48.8674 14.4463 48.9265 14.2164L48.9254 14.2175ZM48.7581 15.7778C49.6344 15.054 50.645 14.6306 51.7648 14.5168C51.8126 14.5123 51.8627 14.5088 51.9116 14.5077C51.9253 14.5077 51.9389 14.5077 51.9526 14.5077C51.9674 14.5077 51.9822 14.5077 51.9981 14.5077C52.0118 14.5077 52.0266 14.5077 52.0414 14.5088C52.088 14.5088 52.1358 14.5111 52.1836 14.5134C52.2052 14.5134 52.2257 14.5145 52.2473 14.5157C52.3111 14.5191 52.3771 14.5236 52.4442 14.5282C52.4454 14.5282 52.4465 14.5282 52.4476 14.5282C52.5501 14.535 52.6536 14.5419 52.7595 14.5464C52.739 14.5703 52.7185 14.5931 52.698 14.617C52.1745 15.2019 51.3836 15.5502 50.6177 15.8859L50.5596 15.9121C50.4777 15.9485 50.3969 15.9803 50.315 16.0111C50.2899 16.0202 50.2637 16.0293 50.2387 16.0384C50.1807 16.0589 50.1215 16.0782 50.0635 16.0964C50.0361 16.1044 50.0088 16.1135 49.9815 16.1214C49.9178 16.1397 49.8529 16.1556 49.7892 16.1715C49.7698 16.1761 49.7505 16.1818 49.7311 16.1852C49.6481 16.2034 49.5661 16.2182 49.4819 16.2318C49.4603 16.2353 49.4398 16.2375 49.4182 16.2398C49.3544 16.2489 49.2907 16.2557 49.2259 16.2614C49.1974 16.2637 49.1689 16.266 49.1405 16.2683C49.079 16.2728 49.0176 16.2751 48.955 16.2774C48.9288 16.2774 48.9026 16.2796 48.8776 16.2796C48.8662 16.2796 48.856 16.2796 48.8446 16.2796C48.7934 16.2796 48.7422 16.2774 48.691 16.2751C48.6603 16.2751 48.6295 16.2751 48.5988 16.2728C48.5066 16.2683 48.4133 16.2603 48.3188 16.25C48.3188 16.25 48.3177 16.25 48.3166 16.25C48.4452 16.0748 48.592 15.92 48.7593 15.7812L48.7581 15.7778ZM47.3162 13.5961L47.3993 13.3936C47.5871 12.9361 47.7692 12.5742 47.9729 12.2533L47.982 12.2396C48.0582 12.119 48.1618 11.9585 48.2745 11.8083C48.2847 11.8652 48.2961 11.921 48.3063 11.9779L48.4258 11.954L48.3097 11.9926C48.3348 12.1235 48.3598 12.2476 48.3769 12.3716C48.3974 12.5139 48.4065 12.6686 48.4031 12.8325C48.3996 13.0283 48.3792 13.2388 48.3416 13.4778C48.2221 14.2312 47.949 14.9811 47.5302 15.7095C47.3811 15.969 47.1615 16.1909 46.9236 16.4162C46.8815 16.0839 46.8587 15.7243 46.8542 15.3248C46.8474 14.7205 47.0738 14.1743 47.3151 13.595L47.3162 13.5961ZM46.2965 16.9784C46.3307 17.0535 46.3773 17.1127 46.424 17.1639C46.3375 17.2037 46.2533 17.247 46.1691 17.2936C46.2146 17.1889 46.2578 17.0842 46.2977 16.9784H46.2965ZM46.9816 17.7158L47.2229 17.6271C47.5313 17.5121 47.8454 17.3972 48.1641 17.3061C48.4372 17.2288 48.7137 17.1684 48.9926 17.148C49.2008 17.132 49.4193 17.1309 49.631 17.1298H49.8267C49.895 17.1298 49.9622 17.1298 50.0304 17.1286H50.1158C50.1556 17.1263 50.1966 17.1252 50.2364 17.1252C50.2444 17.1252 50.2524 17.1252 50.2603 17.1252C50.2717 17.1252 50.282 17.1252 50.2933 17.1252C50.3423 17.1252 50.3912 17.1286 50.4356 17.1343C50.6609 17.1639 50.8942 17.2094 51.1218 17.2527L51.2095 17.2697C51.2265 17.2731 51.2436 17.2766 51.2618 17.28C51.1082 17.4518 50.7963 17.6339 50.5995 17.7488L50.53 17.7898C50.2194 17.9719 49.8779 18.129 49.483 18.2689C49.2953 18.3361 49.1075 18.4078 48.9186 18.4806L48.8935 18.4908C48.7877 18.5318 48.683 18.5716 48.5772 18.6115C48.4986 18.6411 48.4201 18.6672 48.3405 18.6923C48.3166 18.7002 48.2927 18.7071 48.2688 18.7139C48.2551 18.7185 48.2415 18.7219 48.2278 18.7264C48.1823 18.7389 48.1368 18.7515 48.0912 18.7628C48.0673 18.7685 48.0434 18.7754 48.0195 18.7811C47.9399 18.8004 47.8591 18.8175 47.7783 18.8323C47.7783 18.8323 47.7783 18.8323 47.7771 18.8323C47.6963 18.8471 47.6144 18.8584 47.5324 18.8687C47.5085 18.8721 47.4847 18.8744 47.4596 18.8766C47.3993 18.8835 47.3378 18.8892 47.2764 18.8926C47.2525 18.8937 47.2275 18.896 47.2036 18.8971C47.1216 18.9017 47.0385 18.904 46.9555 18.904C46.9555 18.904 46.9555 18.904 46.9543 18.904C46.8895 18.904 46.8246 18.9005 46.7597 18.8983C46.7324 18.8971 46.7051 18.8983 46.6766 18.896C46.6254 18.8926 46.5742 18.8869 46.5241 18.8823C46.482 18.8789 46.4399 18.8766 46.3978 18.871C46.1349 18.8402 45.8265 18.8004 45.5227 18.7344C46.0041 18.2291 46.4718 17.9036 46.9851 17.7158H46.9816ZM44.2936 17.8558C44.3129 17.5827 44.3607 17.3164 44.4245 17.0592C44.5679 16.4788 44.8012 15.9428 45.0276 15.4716C45.0561 15.4125 45.0845 15.3533 45.1118 15.293L45.0015 15.2417L45.1175 15.2816C45.1983 15.1097 45.2734 14.9481 45.3645 14.7979C45.4282 14.6921 45.4999 14.6033 45.5773 14.5339C45.6171 14.4986 45.6604 14.4656 45.7048 14.4292C45.773 14.3746 45.8447 14.3188 45.9153 14.2505C45.9472 14.4212 45.9585 14.601 45.9597 14.7797C45.9597 14.9584 45.9494 15.1348 45.9369 15.2986C45.8618 16.2705 45.5215 17.1855 44.8956 18.0937C44.8945 18.0948 44.8933 18.0971 44.8922 18.0982C44.7454 18.3099 44.5667 18.4874 44.3494 18.6718C44.3164 18.4852 44.2902 18.2826 44.2879 18.0698C44.2879 17.9992 44.289 17.9275 44.2947 17.8547L44.2936 17.8558ZM43.7098 19.1566C43.6643 19.1657 43.6187 19.1737 43.5732 19.1828C43.4059 19.2146 43.242 19.259 43.0816 19.3114C43.2659 19.0576 43.4355 18.7845 43.5891 18.4954C43.6142 18.7116 43.654 18.9165 43.6961 19.1134C43.6995 19.1293 43.7052 19.1418 43.7098 19.1566ZM40.9671 19.7472C41.1014 19.0815 41.3791 18.4863 41.8138 17.9446L41.8616 17.8843C42.1905 17.4734 42.5296 17.0489 42.9063 16.6836C43.1169 16.4799 43.316 16.3149 43.5186 16.1772L43.5664 16.1442C43.5755 16.1385 43.5835 16.1328 43.5926 16.126C43.5891 16.2239 43.5857 16.3161 43.5732 16.4014C43.4936 16.934 43.2933 17.4985 42.9632 18.1278C42.5911 18.8345 42.1211 19.4229 41.5646 19.8758C41.4166 19.9965 41.2368 20.0921 41.0445 20.1842C40.9944 20.2081 40.9443 20.232 40.892 20.2559C40.9079 20.0807 40.9341 19.9123 40.9682 19.7461L40.9671 19.7472ZM38.5203 19.6653L38.5693 19.6038C38.8515 19.2522 39.1428 18.888 39.4592 18.5694C39.6424 18.385 39.8598 18.228 40.0863 18.0698C40.1284 18.0413 40.1705 18.0129 40.216 17.9833C40.241 17.9662 40.2672 17.9491 40.2934 17.9321C40.2672 18.1403 40.2274 18.3509 40.1739 18.5591C40.0658 18.9836 39.8917 19.4309 39.6709 19.8497C39.2987 20.5564 38.8287 21.1448 38.2722 21.5977C38.0867 21.7491 37.85 21.8617 37.5997 21.9778C37.677 21.1004 37.9798 20.3424 38.5215 19.6653H38.5203ZM40.1511 20.4756C40.1477 20.553 40.1466 20.6304 40.1466 20.71V20.9342C40.0248 20.9615 39.9053 20.9945 39.7881 21.0321C39.9167 20.8557 40.0373 20.6702 40.1511 20.4756ZM41.461 25.1609C41.271 25.1905 41.0798 25.2201 40.8852 25.2462C39.878 25.3805 38.7366 25.533 37.6201 25.5433C37.6179 25.5433 37.6167 25.5433 37.6144 25.5433C37.4585 25.5444 37.3015 25.5455 37.1467 25.5455C37.1171 25.5455 37.0875 25.5455 37.0579 25.5455C36.9897 25.5455 36.9225 25.5455 36.8542 25.5455C36.7279 25.5455 36.6027 25.5444 36.4787 25.5433C36.4093 25.5433 36.341 25.5421 36.2727 25.541C36.143 25.5399 36.0155 25.5376 35.888 25.5353C35.8311 25.5353 35.7731 25.533 35.7162 25.5319C35.5455 25.5285 35.3759 25.5251 35.2098 25.5216C35.2029 25.5216 35.1961 25.5216 35.1904 25.5216C35.0356 25.5182 34.8741 25.5034 34.7193 25.4886C34.7193 25.4886 34.7181 25.4886 34.717 25.4886C34.6408 25.4818 34.5634 25.475 34.486 25.4693C34.4621 25.467 34.4393 25.4659 34.4154 25.4647C34.3403 25.4602 34.2641 25.4568 34.1878 25.4556C34.1776 25.4556 34.1673 25.4556 34.1571 25.4556C34.0922 25.4556 34.0262 25.4579 33.9613 25.4636C33.9613 25.4636 33.9591 25.4636 33.9579 25.4636C33.9579 25.4636 33.9579 25.4636 33.9568 25.4636C33.901 25.4682 33.8464 25.4704 33.7906 25.4704C33.7861 25.4704 33.7815 25.4704 33.777 25.4704C33.7622 25.4704 33.7474 25.4704 33.7315 25.4693C33.6882 25.4693 33.645 25.4659 33.6017 25.4636C33.5824 25.4625 33.5619 25.4602 33.5425 25.4591C33.5016 25.4556 33.4606 25.4511 33.4185 25.4465C33.4014 25.4443 33.3832 25.4431 33.365 25.4408C33.3115 25.434 33.2569 25.4272 33.2023 25.4204C33.2011 25.4204 33.1989 25.4204 33.1977 25.4204C33.0703 25.4033 32.9394 25.3862 32.8074 25.376C32.6617 25.3646 32.516 25.3566 32.3704 25.3475C32.1314 25.3339 31.8844 25.3191 31.6443 25.2918C31.3769 25.261 31.1037 25.2201 30.8397 25.1802C30.6201 25.1472 30.3936 25.1131 30.1694 25.0846C30.1284 25.0789 30.0863 25.0778 30.0465 25.079C30.0032 25.079 29.96 25.0812 29.9168 25.0835C29.9168 25.0835 29.9156 25.0835 29.9145 25.0835C29.8769 25.0858 29.8416 25.0869 29.8075 25.0881C29.8018 25.0881 29.7961 25.0881 29.7904 25.0881C29.7882 25.0881 29.7859 25.0881 29.7825 25.0881C29.7654 25.0881 29.7483 25.0869 29.7324 25.0858C29.7244 25.0858 29.7153 25.0858 29.7085 25.0835C29.6857 25.0801 29.663 25.0755 29.6436 25.0687C29.2544 24.9265 28.8493 24.8718 28.4578 24.8206C28.1972 24.7853 27.9275 24.7501 27.6714 24.6886C27.487 24.6442 27.3027 24.593 27.1195 24.5407C27.0921 24.5327 27.0637 24.5247 27.0352 24.5168C27.058 24.5168 27.0808 24.5179 27.1035 24.519C27.1092 24.519 27.1138 24.519 27.1195 24.519C27.165 24.5202 27.2116 24.5224 27.2594 24.5224C27.2981 24.5224 27.338 24.5224 27.3778 24.5213L27.5383 24.5133C28.0333 24.4906 28.5466 24.4667 29.0496 24.428L29.1611 24.42C29.7882 24.3722 30.4357 24.3244 31.0707 24.2436C32.4534 24.0684 33.8248 23.76 35.2268 23.4311C35.8118 23.2934 36.3933 23.1056 36.9544 22.9235L37.2355 22.8325C37.2742 22.8438 37.3186 22.8529 37.3675 22.8529C37.4301 22.8529 37.4904 22.8382 37.5462 22.8097C37.6486 22.7574 37.7533 22.7096 37.8603 22.6595C37.9229 22.6299 37.9866 22.6003 38.0503 22.5707L38.1823 22.639C38.2472 22.6731 38.3086 22.705 38.3724 22.7391C38.4987 22.8074 38.6296 22.8768 38.7661 22.9372C39.3716 23.1989 40.0328 23.3321 40.7327 23.3321C40.8283 23.3321 40.925 23.3298 41.0217 23.3252C41.1469 23.3184 41.2676 23.3013 41.3859 23.2809C41.4257 23.8977 41.4485 24.527 41.4576 25.1677C41.8047 25.1131 42.145 25.0516 42.4716 24.9834C42.145 25.0516 41.8058 25.112 41.4576 25.1677L41.461 25.1609ZM43.7382 21.9459L43.7223 21.9528C43.1112 22.2145 42.5899 22.3966 42.0357 22.4342C41.8411 22.4478 41.6568 22.4842 41.4781 22.5195C41.4303 22.5286 41.3825 22.5388 41.337 22.5468C41.2175 22.5696 41.1014 22.5878 40.9899 22.5935C40.9876 22.5935 40.9853 22.5935 40.983 22.5935C40.9022 22.5969 40.8214 22.5992 40.7406 22.5992C40.7384 22.5992 40.7372 22.5992 40.7349 22.5992C40.719 22.5992 40.7042 22.5992 40.6883 22.5992C40.6234 22.5992 40.5586 22.5969 40.4948 22.5935C40.4675 22.5923 40.4391 22.5889 40.4117 22.5878C40.3605 22.5844 40.3093 22.5798 40.2581 22.5753C40.2274 22.5719 40.1967 22.5684 40.1671 22.5639C40.1193 22.5582 40.0726 22.5514 40.026 22.5434C39.9952 22.5389 39.9634 22.5332 39.9326 22.5275C39.8871 22.5195 39.8416 22.5104 39.7961 22.5002C39.7653 22.4933 39.7358 22.4865 39.705 22.4797C39.6595 22.4683 39.614 22.4569 39.5685 22.4433C39.54 22.4353 39.5116 22.4273 39.4842 22.4194C39.4353 22.4046 39.3875 22.3886 39.3386 22.3716C39.3147 22.3636 39.2919 22.3556 39.268 22.3477C39.1975 22.3215 39.128 22.2942 39.0598 22.2646C39.0598 22.2646 39.0598 22.2646 39.0586 22.2646C39.0415 22.2566 39.0233 22.2486 39.004 22.2407C39.4467 21.9152 39.8996 21.7149 40.4163 21.6148L40.4743 21.6034C40.5392 21.5909 40.6041 21.5783 40.6689 21.5658C40.6871 21.5624 40.7065 21.559 40.7247 21.5556C40.7725 21.5465 40.8203 21.5374 40.8681 21.5294C40.892 21.5249 40.9159 21.5214 40.9398 21.5169C40.9819 21.5089 41.0251 21.5021 41.0684 21.4953C41.0946 21.4907 41.1219 21.4873 41.1481 21.4828C41.1742 21.4782 41.2004 21.4748 41.2254 21.4702C41.2402 21.468 41.2539 21.4668 41.2687 21.4645C41.296 21.4611 41.3244 21.4566 41.3518 21.4532C41.3916 21.4475 41.4303 21.4429 41.4701 21.4395C41.4986 21.4361 41.5259 21.4338 41.5543 21.4304C41.5942 21.427 41.6329 21.4236 41.6727 21.4202C41.7 21.4179 41.7285 21.4156 41.7558 21.4145C41.7967 21.4122 41.8366 21.4111 41.8775 21.4099C41.9037 21.4099 41.9299 21.4088 41.9561 21.4076C41.964 21.4076 41.972 21.4076 41.9811 21.4076C42.0357 21.4076 42.0904 21.4088 42.145 21.4111C42.5171 21.4281 42.9063 21.493 43.2705 21.5988C43.5345 21.6739 43.7633 21.7456 43.9772 21.8367C43.918 21.8663 43.8395 21.9027 43.7382 21.9459ZM44.9207 20.7851C44.8535 20.7931 44.7841 20.8022 44.7124 20.8124C44.6578 20.8193 44.602 20.8272 44.5474 20.8341C44.5326 20.8363 44.5178 20.8375 44.5019 20.8398C44.4427 20.8466 44.3835 20.8546 44.3243 20.8602C44.3232 20.8602 44.322 20.8602 44.3198 20.8602C44.264 20.8659 44.2082 20.8705 44.1536 20.8739C44.14 20.8739 44.1263 20.8762 44.1126 20.8762C44.0557 20.8796 43.9988 20.8819 43.9442 20.8819C43.9442 20.8819 43.9431 20.8819 43.9419 20.8819C43.9203 20.8819 43.8987 20.8819 43.8771 20.8807C43.86 20.8807 43.8429 20.8807 43.8259 20.8796C43.7906 20.8773 43.7564 20.875 43.7212 20.8716C43.7177 20.8716 43.7132 20.8716 43.7098 20.8716C43.3024 20.825 42.8221 20.7499 42.351 20.5461C42.3339 20.5382 42.3157 20.5302 42.2975 20.5222C42.7402 20.1956 43.1942 19.9953 43.7098 19.8963C43.7917 19.8804 43.8714 19.8656 43.951 19.8508C43.9749 19.8462 43.9977 19.8428 44.0216 19.8383C44.0785 19.828 44.1343 19.8178 44.19 19.8087C44.2173 19.8041 44.2447 19.7996 44.2708 19.795C44.3255 19.7859 44.3789 19.778 44.4324 19.77C44.4563 19.7666 44.4802 19.7632 44.5041 19.7598C44.6544 19.7381 44.8012 19.7222 44.9468 19.712C44.9685 19.7108 44.9912 19.7097 45.0128 19.7074C45.064 19.704 45.1141 19.7017 45.1653 19.7006C45.1904 19.7006 45.2154 19.6994 45.2404 19.6994C45.2598 19.6994 45.2791 19.6983 45.2985 19.6983C45.3292 19.6983 45.3611 19.6994 45.3918 19.7006C45.4077 19.7006 45.4237 19.7006 45.4396 19.7006C45.4464 19.7006 45.4533 19.7006 45.4589 19.7017C45.5306 19.704 45.6035 19.7085 45.6763 19.7154C46.185 19.7632 46.6755 19.8793 47.133 20.0591C47.1717 20.0739 47.2093 20.0898 47.2468 20.1057C46.8144 20.3527 46.3056 20.5336 45.6877 20.6622C45.4487 20.7123 45.1938 20.7544 44.9184 20.7885L44.9207 20.7851Z" fill="#132463"/>
<path d="M53.0201 17.4316V17.4362L53.0179 17.4419C52.9871 17.5773 52.9359 17.8049 52.7937 18.0507C52.4568 18.6345 51.8548 18.9862 51.4565 19.2184L51.3905 19.2571C50.9865 19.4949 50.5483 19.6963 50.051 19.8727C49.8826 19.9331 49.705 20.0013 49.5309 20.0685C49.4478 20.1003 49.3648 20.1322 49.2817 20.1641C49.2817 20.213 49.2783 20.2608 49.2726 20.3097C49.2555 20.4497 49.2168 20.584 49.1599 20.7103L48.9039 21.0654L49.0188 21.2782C49.0973 21.4273 49.1804 21.573 49.268 21.7152C49.4387 21.9918 49.6311 22.2524 49.8302 22.5084C49.8325 22.5118 49.8359 22.5153 49.8393 22.5164C49.8439 22.5175 49.8496 22.5164 49.8541 22.513C50.084 22.3889 50.315 22.266 50.5449 22.142C50.3116 22.2683 50.0794 22.3935 49.8461 22.5198C49.8439 22.521 49.8416 22.5221 49.8405 22.5244C49.8405 22.5266 49.8405 22.5301 49.8427 22.5323C49.9531 22.7053 50.0886 22.8624 50.2422 22.9989C50.2524 23.008 50.2638 23.0171 50.2775 23.0206C50.3048 23.0274 50.3469 22.9898 50.3685 22.9762C50.4095 22.9523 50.4504 22.9272 50.4914 22.9033C50.5711 22.8555 50.6507 22.8077 50.7304 22.7599C50.892 22.6632 51.0525 22.5665 51.2141 22.4697C50.9034 22.6552 50.5938 22.8419 50.2832 23.0274C50.5073 23.2777 50.7611 23.5076 51.0138 23.7284C55.9517 28.0336 65.5647 28.8792 65.5647 35.7461C65.5647 41.2155 60.0953 41.3634 58.8753 41.3634C54.2185 41.3634 52.112 37.5567 52.112 33.75C52.112 32.1977 52.4443 30.683 53.11 29.389C52.9257 29.389 52.7402 29.3526 52.5558 29.3526C49.3033 29.3526 47.6406 31.5331 47.6406 34.0459C47.6406 35.5606 48.2324 37.1869 49.4888 38.5548C51.4474 40.6249 55.1801 41.7697 58.7649 41.7697C63.976 41.7697 69.9997 39.3673 69.9997 33.0114C69.9997 24.1392 55.369 24.2087 53.0213 17.4328L53.0201 17.4316Z" fill="#132463"/>
<path d="M40.5975 16.8418C40.5884 16.8418 40.5794 16.8418 40.5703 16.8429C40.5771 16.8429 40.5828 16.8418 40.5896 16.8418C40.5918 16.8418 40.5952 16.8418 40.5975 16.8418Z" fill="#132463"/>
<path d="M57.5 10.0938C57.5592 10.178 57.6093 10.2679 57.6514 10.36C57.7413 10.3566 57.8289 10.3544 57.9108 10.3544C62.6041 10.3544 64.7106 14.7153 64.7106 19.5941C64.7106 20.2223 64.6742 20.888 64.6002 21.5527C67.6308 21.2204 68.9976 19.2982 68.9976 17.1917C68.9976 16.2312 68.7017 15.2331 68.185 14.3466C66.0785 10.7618 60.3132 9.94922 57.9484 9.94922C57.8494 9.94922 57.7492 9.95036 57.6502 9.95264C57.599 10.0016 57.5489 10.0494 57.5 10.0949V10.0938Z" fill="#132463"/>
</svg>
